<svg xmlns="http://www.w3.org/2000/svg" class="tw:block tw:h-auto tw:w-[160px] tw:md:w-[210px]" fill="none" height="60" viewBox="0 0 252 60" width="252"><path d="M.474 47.747h23.177l-.355-9.557-4.776-.159-.67 6.266h-7.077v-19.24h3.065l.75 3.213h3.146v-9.4l-3.187-.079-.71 3.133h-3.064V3.514h7.037l.276 5.75 4.54.12.552-9.16H.435L.237 3.476l3.652.476v39.87l-3.257.514zm49.032-2.815-2.713-.516V21.469c0-4.919-2.999-7.377-7.064-7.377-2.762 0-4.933 1.11-6.748 3.014v-1.07l-.563-1.627-7.478 1.07v2.856l2.99.278v25.803l-2.556.516-.118 2.815H36.68l.197-2.815-2.684-.516V20.338c.316-.436.671-.913 1.066-1.23.632-.198 1.194-.357 1.983-.357 2.33 0 3.287 1.467 3.287 4.085v24.911h8.82zm8.337 3.2c2.408 0 4.263-.475 5.289-.912l-.277-2.896H60.3c-1.42 0-2.17-.912-2.17-2.3V17.162l4.282-.477.325-3.33h-4.696V7.918l-4.321.2-1.46 5.076-3.395.158-.118 3.332 3 .476v24.903c0 4.64 2.939 6.068 6.096 6.068M80.866 22.54l.79-7.179-1.145-.992c-3.276 0-6.039.992-8.052 2.5v-.596l-.512-1.864-7.725 1.071v2.855l2.842.278v25.841l-2.408.555-.118 2.737h11.395l.197-2.737-2.684-.555V19.527c.79-.556 1.737-.833 2.723-.992l.434 3.848zm61.253 0 .789-7.179-1.145-.992c-3.276 0-6.038.992-8.051 2.5v-.596l-.513-1.864-7.725 1.071v2.855l2.842.278v25.841l-2.408.555-.118 2.737h11.395l.197-2.737-2.684-.555V19.527c.79-.556 1.737-.833 2.724-.992l.434 3.848zm45.618 25.206.158-2.815-2.713-.516V21.469c0-4.919-2.999-7.377-7.064-7.377-2.763 0-4.933 1.11-6.749 3.014v-1.07l-.562-1.627-7.479 1.07v2.856l2.99.278v25.803l-2.556.516-.117 2.815h11.423l.197-2.815-2.683-.516V20.338c.316-.436.671-.913 1.066-1.23.632-.198 1.194-.357 1.983-.357 2.329 0 3.287 1.467 3.287 4.085v24.911zm45.062 0 .316-2.815-2.674-.516v-27.99l-.672-2.262-8.671.991v2.5l3.079.278v24.262a10.7 10.7 0 0 1-1.185 1.467c-.75.317-1.586.397-2.25.397-2.331 0-3.493-1.507-3.493-4.403v-23.23l-.67-2.262-8.583.991v2.5l2.989.278V40.45c0 5.631 3.64 7.694 7.706 7.694 2.644 0 4.341-.992 6.078-2.657l.67 2.26zm18.967-32.385-1.145-.992c-3.276 0-6.038.992-8.051 2.499v-.595l-.513-1.864-7.725 1.07v2.856l2.842.278v25.84l-2.408.556-.119 2.737h11.396l.197-2.737-2.684-.555V19.527c.79-.556 1.737-.833 2.724-.992l.433 3.848 4.263.158z" fill="#010D22"></path><path d="M218.689 48.368c-7.156 0-7.929-5.537-7.929-7.918V18.137l-2.99-.28v-2.901l8.969-1.036.732 2.505v23.231c0 2.813 1.07 4.18 3.27 4.18.821 0 1.535-.122 2.123-.363.35-.358.706-.8 1.088-1.348V18.137l-3.079-.278v-2.903l9.056-1.036.735 2.506V44.23l2.695.52-.361 3.22h-7.727l-.614-2.072c-1.423 1.313-3.16 2.47-5.968 2.47m-10.471-30.917 2.99.278v22.722c0 6.742 5.232 7.47 7.481 7.47 2.671 0 4.3-1.038 5.924-2.595l.265-.254.727 2.453h6.993l.27-2.412-2.652-.511V16.458l-.609-2.05-8.286.947v2.095l3.079.278v24.537l-.04.057a11 11 0 0 1-1.209 1.498l-.072.048c-.65.276-1.437.415-2.337.415-1.696 0-3.717-.803-3.717-4.627V16.458l-.608-2.051-8.198.947zM57.842 48.356c-2.36 0-6.32-.818-6.32-6.292V17.352l-3.007-.478.133-3.735 3.44-.16 1.46-5.077 4.715-.218v5.446h4.72l-.367 3.757-4.264.475v24.663c0 1.32.71 2.075 1.947 2.075h2.759l.31 3.262-.15.064c-.512.218-2.414.93-5.376.93m-8.866-31.861 2.993.475v25.094c0 4.83 3.194 5.844 5.873 5.844 2.637 0 4.395-.575 5.05-.832l-.242-2.528H60.3c-1.5 0-2.395-.943-2.395-2.523V16.96l4.301-.478.284-2.906h-4.674V8.153l-3.926.181-1.46 5.077-3.349.156zM246.25 47.97h-11.838l.136-3.14 2.401-.554v-25.46l-2.842-.277v-3.253l8.112-1.125.573 2.113v.158c2.165-1.497 4.862-2.286 7.828-2.286h.083L252 15.27l-.825 7.503-4.664-.174-.429-3.803c-.961.175-1.7.448-2.303.85v24.627l2.697.558zm-11.37-.447h10.954l.168-2.334-2.67-.553V19.411l.094-.067c.724-.51 1.62-.837 2.817-1.03l.232-.037.438 3.89 3.863.143.754-6.855-.992-.86c-3.789.019-6.35 1.343-7.835 2.454l-.358.268v-1.012l-.453-1.646-7.337 1.017v2.458l2.841.278v26.222l-2.415.557zm-46.932.447h-9.255V22.837c0-2.635-.973-3.862-3.063-3.862-.736 0-1.267.144-1.875.334-.339.282-.654.695-.95 1.102v23.82l2.696.519-.225 3.222H163.41l.135-3.224 2.548-.515V18.817l-2.99-.278v-3.253l7.854-1.125.634 1.875v.528c1.886-1.813 4.026-2.696 6.525-2.696 4.495 0 7.288 2.912 7.288 7.601v22.762l2.724.517zm-8.807-.447h8.383l.135-2.409-2.702-.514V21.47c0-4.479-2.558-7.153-6.84-7.153-2.542 0-4.697.963-6.587 2.944l-.386.405v-1.592l-.489-1.416-7.104 1.017v2.457l2.99.278V44.6l-2.563.517-.101 2.407h10.982l.168-2.41-2.669-.512V20.266l.042-.059c.335-.463.696-.943 1.107-1.273l.073-.04c.663-.207 1.234-.366 2.05-.366 2.363 0 3.511 1.409 3.511 4.309zm-41.749.447h-11.837l.136-3.14 2.4-.554v-25.46l-2.841-.277v-3.253l8.111-1.125.573 2.113v.158c2.165-1.497 4.861-2.286 7.828-2.286h.083l1.297 1.123-.825 7.503-4.663-.174-.429-3.803c-.961.175-1.701.448-2.304.85v24.627l2.697.558zm-11.37-.447h10.954l.168-2.334-2.671-.553V19.411l.095-.067c.724-.51 1.619-.837 2.818-1.03l.231-.037.439 3.89 3.862.143.753-6.855-.992-.86c-3.788.019-6.349 1.343-7.834 2.454l-.358.269v-1.013l-.453-1.646-7.337 1.017v2.458l2.842.278v26.222l-2.416.557zm-49.883.447H64.304l.135-3.14 2.4-.554v-25.46l-2.841-.277v-3.253l8.112-1.125.573 2.113v.158c2.165-1.497 4.86-2.286 7.827-2.286h.084l1.296 1.123-.825 7.503-4.663-.174-.429-3.803c-.961.175-1.7.448-2.304.849v24.628l2.698.558zm-11.369-.447h10.953l.169-2.334-2.67-.553V19.411l.094-.067c.724-.51 1.618-.836 2.817-1.03l.231-.037.44 3.89 3.86.143.755-6.855-.992-.86c-3.79.019-6.35 1.343-7.835 2.454l-.358.269v-1.013l-.452-1.646-7.338 1.017v2.458l2.842.278v26.222l-2.415.557zm-15.21.447h-9.257V22.837c0-2.635-.973-3.862-3.062-3.862-.736 0-1.267.144-1.875.333-.337.281-.654.695-.95 1.102v23.82l2.697.52-.225 3.221H25.02l.136-3.224 2.548-.514V18.817l-2.99-.278v-3.253l7.854-1.125.635 1.875v.528c1.886-1.813 4.026-2.696 6.524-2.696 4.496 0 7.288 2.912 7.288 7.601v22.762l2.724.517zm-8.809-.447h8.385l.135-2.409-2.703-.514V21.47c0-4.479-2.557-7.153-6.84-7.153-2.542 0-4.697.963-6.587 2.944l-.386.405v-1.592l-.49-1.416-7.103 1.017v2.457l2.99.278V44.6l-2.563.517-.101 2.407h10.981l.17-2.41-2.672-.512V20.266l.043-.059c.336-.464.699-.945 1.107-1.273l.073-.04c.64-.2 1.235-.366 2.05-.366 2.362 0 3.51 1.409 3.51 4.309zm-16.869.447H.24l.177-3.827 3.248-.514V4.149L0 3.67.223 0h23.19l-.579 9.614-4.963-.13-.275-5.745h-6.6V21.7h2.661l.712-3.137 3.588.089v9.842H14.41l-.75-3.212h-2.663v18.791h6.651l.672-6.272 5.192.173zM.708 47.524h22.71l-.339-9.117-4.36-.144-.67 6.258h-7.501V24.834h3.466l.75 3.213h2.745v-8.958l-2.785-.07-.709 3.13h-3.467V3.29h7.474l.276 5.756 4.116.108.525-8.707H.644L.472 3.28l3.64.475v40.257l-3.266.516zM95.654 29.519l-7.828.309c.024-2.289.67-8.64 1.977-11.339.943-.627 1.47-.767 2.196-.754 3.059.054 3.569 7.819 3.655 11.784m4.967 3.238.689-1.638c.155-8.914-2.275-16.96-9.041-17.078-7.792-.137-10.764 8.755-10.906 16.926-.168 9.607 3.614 17.153 10.384 17.272 3.498.061 6.293-1.376 8.23-3.273l-1.01-2.244c-1.883 1.057-3.487 1.573-5.468 1.538-3.873-.067-5.705-5.884-5.606-11.577z" fill="#010D22"></path><path d="M91.955 48.463q-.105 0-.211-.002c-6.523-.114-10.784-7.146-10.604-17.499.08-4.547 1.007-8.695 2.611-11.68 1.956-3.64 4.898-5.53 8.523-5.466 5.986.105 9.448 6.574 9.261 17.306l-.017.083-.747 1.776-12.656-.074c-.046 5.52 1.773 11.066 5.39 11.129 1.83.032 3.386-.406 5.355-1.51l.213-.12 1.175 2.61-.112.109a11.61 11.61 0 0 1-8.18 3.338m.136-34.201c-3.407 0-6.079 1.76-7.945 5.232-1.571 2.923-2.48 6.999-2.558 11.476-.175 10.085 3.91 16.935 10.165 17.044a11.14 11.14 0 0 0 7.958-3.101l-.846-1.879c-1.944 1.06-3.514 1.48-5.368 1.45-4.143-.073-5.924-6.17-5.826-11.806l.004-.221 12.799.074.615-1.46c.064-3.966-.399-16.66-8.822-16.807zm-4.49 15.797.002-.235c.023-2.125.65-8.647 2-11.434l.026-.055.051-.034c.924-.614 1.482-.81 2.324-.791 2.988.052 3.756 6.556 3.875 12.003l.005.22zm2.378-11.418c-1.254 2.657-1.862 8.662-1.924 10.952l7.372-.29c-.181-7.283-1.397-11.31-3.43-11.346-.638-.011-1.112.09-2.018.684" fill="#010D22"></path><path d="M118.455 30.878c0 6.23-.924 10.34-1.171 11.041-.949.476-1.977.714-3.242.714-1.383 0-2.45-.238-3.32-.714V20.343c.356-.555.791-1.07 1.226-1.547a6.9 6.9 0 0 1 2.364-.396c3.555 0 4.143 6.012 4.143 12.478m6.189-1.172c0-8.008-2.371-15.44-8.254-15.44-3.912 0-5.771 2.264-6.537 3.221v-.872l-.672-2.262-7.727 1.072v2.736l2.995.397v37.15l-2.531.515-.118 2.698h11.413l.197-2.698-2.688-.515v-10.26c1.068.596 2.599.993 4.259.993 9.574 0 9.663-12.225 9.663-16.735" fill="#010D22"></path><path d="M113.421 59.145h-11.854l.136-3.106 2.522-.513V18.755l-2.995-.397V15.23l8.111-1.124.736 2.51v.25c.935-1.075 2.844-2.824 6.314-2.824 6.25 0 8.477 8.092 8.477 15.665 0 4.194 0 16.958-9.887 16.958-1.464 0-2.911-.306-4.035-.848v9.706l2.702.517zm-11.386-.448h10.97l.168-2.291-2.674-.513V45.068l.333.186c1.098.612 2.611.963 4.15.963 9.439 0 9.439-12.426 9.439-16.51 0-7.357-2.109-15.217-8.03-15.217-3.85 0-5.676 2.28-6.363 3.138l-.399.497v-1.477l-.607-2.046-7.343 1.018v2.345l2.994.397v37.53l-2.538.516zm12.008-15.84c-1.395 0-2.516-.242-3.428-.74l-.116-.065V20.278l.035-.055c.405-.632.907-1.203 1.249-1.578l.038-.041.053-.019a7.1 7.1 0 0 1 2.439-.409c3.848 0 4.366 6.421 4.366 12.702 0 6.38-.948 10.45-1.183 11.115l-.03.085-.081.04c-1.004.505-2.066.74-3.342.74m-3.096-1.072c.824.42 1.838.625 3.096.625 1.168 0 2.142-.207 3.058-.65.241-.794 1.131-4.794 1.131-10.881 0-10.862-2.094-12.254-3.919-12.254-.799 0-1.512.116-2.237.365-.319.35-.763.862-1.129 1.42zM157.217 29.518l-7.829.308c.025-2.288.671-8.638 1.977-11.338.944-.627 1.47-.767 2.197-.754 3.059.054 3.568 7.819 3.655 11.784m4.967 3.238.689-1.638c.155-8.914-2.275-16.96-9.042-17.078-7.792-.137-10.763 8.755-10.906 16.926-.167 9.607 3.614 17.153 10.385 17.272 3.497.061 6.293-1.376 8.231-3.273l-1.011-2.244c-1.884 1.057-3.487 1.573-5.468 1.539-3.873-.068-5.706-5.885-5.607-11.578z" fill="#010D22"></path><path d="M153.518 48.463q-.105 0-.212-.002c-6.522-.114-10.784-7.146-10.603-17.499.079-4.547 1.006-8.695 2.611-11.68 1.956-3.64 4.887-5.53 8.522-5.466 5.986.105 9.448 6.574 9.261 17.306l-.017.083-.747 1.776-12.656-.074c-.046 5.52 1.773 11.066 5.39 11.129 1.841.031 3.386-.406 5.355-1.51l.213-.12 1.175 2.61-.112.109a11.62 11.62 0 0 1-8.18 3.338m.135-34.201c-3.407 0-6.079 1.76-7.946 5.232-1.571 2.923-2.479 6.999-2.557 11.476-.176 10.085 3.909 16.935 10.164 17.044a11.15 11.15 0 0 0 7.959-3.101l-.846-1.879c-1.945 1.06-3.523 1.48-5.369 1.45-4.143-.073-5.924-6.17-5.826-11.806l.004-.221 12.8.074.614-1.46c.065-3.966-.398-16.66-8.822-16.807zm-4.49 15.797.003-.235c.022-2.125.649-8.645 1.998-11.434l.027-.055.051-.034c.925-.614 1.496-.804 2.324-.791 2.989.052 3.757 6.556 3.875 12.003l.005.22zm2.378-11.418c-1.255 2.658-1.862 8.663-1.923 10.952l7.371-.29c-.18-7.284-1.397-11.31-3.431-11.346-.643-.011-1.111.09-2.017.684M202.197 29.518l-7.828.308c.024-2.288.67-8.638 1.977-11.338.943-.627 1.469-.767 2.196-.754 3.059.054 3.569 7.819 3.655 11.784m4.967 3.238.689-1.638c.156-8.914-2.275-16.96-9.041-17.078-7.792-.137-10.764 8.755-10.906 16.926-.168 9.607 3.614 17.153 10.384 17.272 3.498.061 6.293-1.376 8.231-3.273l-1.011-2.244c-1.883 1.057-3.487 1.573-5.468 1.539-3.873-.068-5.705-5.885-5.606-11.578z" fill="#010D22"></path><path d="M198.498 48.463q-.105 0-.211-.002c-6.523-.114-10.785-7.146-10.604-17.499.079-4.547 1.006-8.695 2.611-11.68 1.956-3.64 4.894-5.53 8.523-5.466 5.986.105 9.448 6.574 9.261 17.306l-.017.083-.748 1.776-12.655-.074c-.047 5.52 1.772 11.066 5.389 11.129 1.842.03 3.386-.406 5.355-1.51l.213-.12 1.176 2.61-.112.109a11.62 11.62 0 0 1-8.181 3.338m.136-34.201c-3.407 0-6.079 1.76-7.946 5.232-1.571 2.923-2.479 6.999-2.558 11.476-.176 10.085 3.909 16.935 10.165 17.044a11.13 11.13 0 0 0 7.958-3.101l-.846-1.879c-1.944 1.06-3.509 1.48-5.368 1.45-4.143-.073-5.924-6.17-5.826-11.806l.004-.221 12.8.074.614-1.46c.064-3.966-.398-16.66-8.822-16.807zm-4.49 15.797.002-.235c.023-2.125.65-8.647 1.999-11.434l.027-.055.051-.034c.925-.614 1.498-.804 2.324-.791 2.989.052 3.757 6.556 3.875 12.003l.005.22zm2.378-11.418c-1.255 2.657-1.863 8.662-1.923 10.952l7.371-.29c-.091-3.57-.615-11.296-3.431-11.345-.639-.014-1.112.088-2.017.683M247.678 47.063v-.352h.229c.123 0 .241.033.241.175 0 .172-.151.177-.305.177zm0 .106h.21l.286.451h.146l-.302-.451c.137-.023.255-.104.255-.283 0-.182-.101-.28-.331-.28h-.389v1.014h.125zm.193-.81c.425 0 .742.333.742.754 0 .42-.317.753-.742.753a.736.736 0 0 1-.741-.753c0-.421.317-.754.741-.754m0-.125a.866.866 0 0 0-.878.879c0 .493.383.877.878.877a.867.867 0 0 0 .879-.877.867.867 0 0 0-.879-.879" fill="#010D22"></path></svg>