<svg xmlns="http://www.w3.org/2000/svg" width="386" height="96" viewBox="0 0 386 96" fill="none"><path fill-rule="evenodd" clip-rule="evenodd" d="M0.0603148 0.626933C0.166503 0.971567 0.815474 3.67203 1.50247 6.62758C2.18947 9.58312 3.65495 15.7898 4.75952 20.4201C5.8641 25.0504 7.23666 30.8541 7.80958 33.317C8.84635 37.774 9.61945 41.0487 13.1804 56.0657C14.2085 60.4005 16.3258 69.3477 17.886 75.9484C19.4459 82.5491 21.0771 89.4407 21.5104 91.2635L22.2986 94.5773L36.6674 94.5658C51.7157 94.554 51.7093 94.5547 52.5595 92.9598C52.7712 92.5629 54.101 87.4041 55.5145 81.4959C58.1269 70.5794 59.8883 63.2346 61.441 56.7822C61.9152 54.8118 62.8849 50.7816 63.5963 47.826C64.3074 44.8705 65.3509 39.7386 65.9153 36.4216C66.9158 30.5413 67.3592 28.8858 67.3592 31.031C67.3592 33.6702 68.7978 40.3558 76.3307 72.7242C78.3253 81.2953 80.2852 89.7187 80.6859 91.4426L81.4145 94.5773H95.7123H110.01L110.921 93.7712C111.742 93.0454 112.976 88.3764 123.318 46.8777C129.635 21.5299 134.803 0.612603 134.803 0.395147C134.803 0.113923 130.886 0 121.227 0C108.341 0 107.618 0.03475 107.033 0.681028C106.375 1.40755 106.061 2.58189 104.35 10.7474C103.751 13.6044 102.042 21.5844 100.552 28.4807C99.0626 35.3769 97.2675 44.3241 96.5629 48.363C95.8583 52.4023 95.2226 55.7662 95.1498 55.8389C94.974 56.0145 94.8621 55.4699 93.355 47.1095C92.6447 43.1688 91.2642 36.2367 90.2877 31.7049C87.3819 18.2187 85.7076 10.5124 84.5094 5.10502L83.3783 0H68.9197H54.4609L53.8643 0.909232C53.536 1.4097 53.0643 2.65891 52.8157 3.68565C52.1096 6.60321 49.4714 17.572 48.1448 23.107C47.4836 25.8655 46.1943 31.1854 45.2795 34.9291C44.3647 38.6728 42.9301 45.0406 42.091 49.0799C40.5885 56.3107 40.5613 56.3935 40.3062 54.4536C39.4603 48.0134 37.7645 38.7076 34.1386 20.6082C31.8897 9.38178 30.0497 0.152613 30.0497 0.098518C30.0497 0.0444227 23.2586 0 14.9583 0C0.750899 0 -0.121928 0.0368995 0.0603148 0.626933ZM259.461 0.855136C258.96 1.61964 258.913 5.50125 259.025 37.4859C259.161 76.3357 259.078 74.6469 261.158 80.7848C263.286 87.0645 267.712 91.4301 273.89 93.3431C279.775 95.1652 291.772 95.46 300.992 94.0095L302.338 93.7977V84.2942V74.7902L300.008 75.0392C291.334 75.9671 287.912 74.6448 286.325 69.7518C285.825 68.2135 285.693 65.9003 285.564 56.5135L285.409 45.1392H292.889C297.003 45.1392 300.911 44.984 301.573 44.7945C303.757 44.169 303.749 44.2156 303.761 32.5109L303.773 21.8531H294.625H285.477V10.9265V0H272.749H260.022L259.461 0.855136ZM307.595 0.655234C307.049 1.25781 307.001 5.05344 307.001 47.9439V94.5773H319.338C330.949 94.5773 331.725 94.5368 332.522 93.8927L333.369 93.2081L333.561 70.517C333.776 45.1467 333.75 45.4161 336.281 42.8879C338.001 41.1705 339.509 40.7062 343.414 40.6915C347.355 40.6772 348.906 41.1766 350.545 42.9882C353.075 45.7851 353.047 45.4863 353.194 71.3808L353.326 94.5773H365.631C377.62 94.5773 377.961 94.5579 378.902 93.8189L379.867 93.0605L379.736 68.652C379.593 42.1234 379.541 41.3776 377.443 35.1082C374.823 27.2809 370.05 22.7713 362.417 20.9123C358.871 20.0482 349.338 20.0343 346.105 20.8883C342.327 21.886 339.496 23.5111 337.124 26.0424C335.953 27.2931 334.709 28.8368 334.361 29.473C333.746 30.5958 333.725 30.1759 333.634 15.3151L333.541 0H320.865C309.04 0 308.149 0.0440645 307.595 0.655234ZM378.349 20.3778C377.211 21.5149 376.957 22.0215 376.958 23.1542C376.961 25.6716 379.087 27.9433 381.441 27.9433C383.795 27.9433 385.921 25.6716 385.924 23.1542C385.925 22.0215 385.671 21.5149 384.533 20.3778C383.307 19.1541 382.936 18.9871 381.441 18.9871C379.946 18.9871 379.575 19.1541 378.349 20.3778ZM383.434 20.0726C383.814 20.2754 384.368 20.9123 384.666 21.4877C385.511 23.1195 385.346 24.5532 384.161 25.8776C383.262 26.8822 382.877 27.0477 381.441 27.0477C380.005 27.0477 379.62 26.8822 378.721 25.8776C378.052 25.13 377.674 24.3157 377.674 23.621C377.674 22.3224 378.507 20.5974 379.378 20.0905C380.198 19.6137 382.556 19.6033 383.434 20.0726ZM157.763 20.4416C150.796 21.2104 143.201 23.9854 138.792 27.373C131.119 33.269 127.047 41.8691 126.24 53.8815C125.218 69.0837 129.343 81.2075 137.895 88.1356C141.835 91.3283 145.692 93.1629 152.239 94.9585C156.241 96.0561 168.523 96.3675 173.534 95.4984C188.944 92.8251 197.611 84.2454 200.702 68.6044C201.668 63.7186 201.579 51.6682 200.54 46.6689C198.318 35.9763 192.965 28.4986 184.49 24.2487C181.622 22.8107 176.96 21.3379 173.548 20.792C170.151 20.2489 161.292 20.0518 157.763 20.4416ZM245.93 21.1241C239.806 22.2411 235.333 25.552 232.293 31.2191L231.306 33.058V27.4554V21.8531H218.79C207.001 21.8531 206.224 21.8929 205.426 22.5377L204.579 23.2227L204.485 58.8998L204.39 94.5773H216.569C223.268 94.5773 229.14 94.4283 229.62 94.2466C230.098 94.0646 230.63 93.6211 230.801 93.2614C230.971 92.9014 231.208 85.433 231.326 76.6649C231.529 61.6515 231.588 60.5585 232.337 57.9017C233.838 52.5792 236.153 49.317 239.801 47.3832C242.298 46.0591 244.611 45.5966 250.354 45.2728C254.147 45.0586 254.723 44.941 255.18 44.2883C255.607 43.6797 255.701 41.5768 255.701 32.5625V21.5783L254.893 21.3544C253.452 20.9546 247.674 20.8059 245.93 21.1241ZM379.616 21.2688C379.268 22.1744 379.633 25.5538 380.096 25.706C380.375 25.7977 380.544 25.5126 380.544 24.9491C380.544 24.4518 380.691 23.9542 380.871 23.8435C381.452 23.4849 382.339 24.0595 382.559 24.9376C382.678 25.4087 382.918 25.7938 383.094 25.7938C383.547 25.7938 383.493 24.2243 383.024 23.7565C382.743 23.4759 382.743 23.2997 383.024 23.1263C383.654 22.7372 383.472 21.5507 382.72 21.1491C381.727 20.6186 379.837 20.6913 379.616 21.2688ZM382.315 21.8312C382.742 22.101 382.749 22.2532 382.36 22.7215C381.605 23.6304 380.544 23.4369 380.544 22.3905C380.544 21.4461 381.318 21.2018 382.315 21.8312ZM168.924 39.9585C173.574 41.5972 175.143 46.201 175.143 58.2152C175.143 73.0223 172.758 77.2263 164.4 77.1579C157.033 77.0973 154.623 73.9748 153.792 63.4126C153.357 57.877 153.78 49.9648 154.69 46.6076C155.545 43.4604 156.943 41.5223 159.174 40.3924C160.854 39.5423 161.548 39.4072 164.24 39.4072C166.13 39.4072 167.975 39.6243 168.924 39.9585Z" fill="#8D7D57"></path></svg>